# xmcd CD database file
#
# Track frame offsets:
#	150
#	17414
#	30674
#	49115
#	65879
#	81950
#	99261
#	113709
#	125602
#	142224
#	160207
#	176344
#	192809
#	205055
#	222393
#	237119
#	250737
#	268929
#
# Disc length: 3811 seconds
#
# Revision: 0
# Processed by: cddbd v1.5PL3 Copyright (c) Steve Scherf et al.
# Submitted via: CDex 1.40Release
#
DISCID=000ee112
DTITLE=Multi Music Services - Hott Country 097
DYEAR=2004
DGENRE=Country
TTITLE0=Aaron Lines - Turn It Up
TTITLE1=Billy Dean - Thank God I'm A Country Boy
TTITLE2=Sherrie Austin - Drivin' Into The Sun
TTITLE3=Colt Prather - I Won't Go On And On
TTITLE4=Billy Ray Cyrus - Always Sixteen
TTITLE5=Chris Cagle - I'd Be Lyin'
TTITLE6=Jeff Bates - I Wanna Make You Cry
TTITLE7=J.R. Vautour - Kiss Me Goodbye
TTITLE8=Aaron Pritchett - My Way
TTITLE9=Andy Griggs - She Thinks She Needs Me
TTITLE10=Rick Tippe - Work's For Me
TTITLE11=Joel Kroeker - Endings
TTITLE12=Leahy - Little Ditty
TTITLE13=Lonestar - Let's Be Us Again
TTITLE14=Chris LeDoux - Horse Power
TTITLE15=Lee Ann Womack - The Wrong Girl
TTITLE16=Julie Roberts - Break Down Here
TTITLE17=Leahy - Coyote Way
EXTD=YEAR: 2004 ID3G: 2
EXTT0=
EXTT1=
EXTT2=
EXTT3=
EXTT4=
EXTT5=
EXTT6=
EXTT7=
EXTT8=
EXTT9=
EXTT10=
EXTT11=
EXTT12=
EXTT13=
EXTT14=
EXTT15=
EXTT16=
EXTT17=
PLAYORDER=
